<svg xmlns="http://www.w3.org/2000/svg" viewBox="0 0 64 64">
  <defs>
    <linearGradient id="g" x1="0" y1="0" x2="1" y2="1">
      <stop offset="0%" stop-color="#2563eb"/>
      <stop offset="100%" stop-color="#06b6d4"/>
    </linearGradient>
  </defs>
  <rect width="64" height="64" rx="12" fill="url(#g)"/>
  <g fill="#fff">
    <!-- Phone handset -->
    <path d="M22 18c-1.1 0-2 .9-2 2 0 14.3 9.7 24 24 24 1.1 0 2-.9 2-2v-4.2c0-.9-.6-1.7-1.5-1.9l-6-1.5c-.9-.2-1.8.2-2.2 1l-1.6 3.2c-4.4-1.7-7.9-5.2-9.6-9.6l3.2-1.6c.8-.4 1.2-1.3 1-2.2l-1.5-6c-.2-.9-1-1.5-1.9-1.5H22z"/>
    <!-- Location pin -->
    <path d="M42 14a8 8 0 0 0-8 8c0 5.5 8 13 8 13s8-7.5 8-13a8 8 0 0 0-8-8zm0 11a3 3 0 1 1 0-6 3 3 0 0 1 0 6z"/>
  </g>
</svg>
